<?xml version="1.0" encoding="UTF-8" standalone="no"?>
<svg
   xmlns:dc="http://purl.org/dc/elements/1.1/"
   xmlns:cc="http://creativecommons.org/ns#"
   xmlns:rdf="http://www.w3.org/1999/02/22-rdf-syntax-ns#"
   xmlns:svg="http://www.w3.org/2000/svg"
   xmlns="http://www.w3.org/2000/svg"
   xmlns:sodipodi="http://sodipodi.sourceforge.net/DTD/sodipodi-0.dtd"
   xmlns:inkscape="http://www.inkscape.org/namespaces/inkscape"
   width="600.00134"
   height="92.788002"
   viewBox="0 0 480.00107 74.230402"
   version="1.1"
   id="svg2"
   inkscape:version="0.47 r22583"
   sodipodi:docname="NewPicture1007.svg">
  <metadata
     id="metadata33">
    <rdf:RDF>
      <cc:Work
         rdf:about="">
        <dc:format>image/svg+xml</dc:format>
        <dc:type
           rdf:resource="http://purl.org/dc/dcmitype/StillImage" />
      </cc:Work>
    </rdf:RDF>
  </metadata>
  <defs
     id="defs31">
    <inkscape:perspective
       sodipodi:type="inkscape:persp3d"
       inkscape:vp_x="0 : 139.375 : 1"
       inkscape:vp_y="0 : 1000 : 0"
       inkscape:vp_z="1802.5 : 139.375 : 1"
       inkscape:persp3d-origin="901.25 : 92.916667 : 1"
       id="perspective35" />
  </defs>
  <sodipodi:namedview
     pagecolor="#ffffff"
     bordercolor="#666666"
     borderopacity="1"
     objecttolerance="10"
     gridtolerance="10"
     guidetolerance="10"
     inkscape:pageopacity="0"
     inkscape:pageshadow="2"
     inkscape:window-width="1680"
     inkscape:window-height="988"
     id="namedview29"
     showgrid="false"
     inkscape:zoom="0.3148605"
     inkscape:cx="-484.0423"
     inkscape:cy="487.47409"
     inkscape:window-x="-8"
     inkscape:window-y="-8"
     inkscape:window-maximized="1"
     inkscape:current-layer="svg2" />
  <g
     id="#005c93ff"
     transform="scale(0.33287175,0.33287175)">
    <path
       d="m 0,0 1442,0 0,223 L 0,223 0,0 M 976.44,40.03 C 951.1,37.53 924.66,46.47 906.82,64.81 894.03,77.8 886.18,95.7 885.99,114 c -0.43,17.31 3.89,35 13.69,49.41 10,15.06 25.68,26.05 43.05,30.88 16.99,4.71 35.32,4.59 52.2,-0.56 14.41,-4.42 27.62,-12.98 37.1,-24.75 12.06,-14.75 18.05,-34.02 17.75,-52.97 0.31,-14.84 -4.46,-29.69 -12.99,-41.8 -8.08,-11.67 -19.63,-20.61 -32.37,-26.71 5.53,-4.81 11,-9.7 16.49,-14.57 -8.02,-5.83 -16.06,-11.64 -24.07,-17.48 -6.83,8.17 -13.64,16.35 -20.4,24.58 m -793.2,4.46 c -0.02,49.42 -0.01,98.85 0,148.27 41.55,0.04 83.11,-0.05 124.67,0.05 3.71,-8.49 6.89,-17.2 10.37,-25.8 17.54,-0.04 35.09,0.01 52.64,-0.02 3.25,8.55 6.5,17.1 9.61,25.7 13.82,0.19 27.64,0.03 41.46,0.07 -18.6,-49.41 -37.26,-98.79 -55.81,-148.22 -14.02,-0.17 -28.05,0.03 -42.07,-0.1 -10.08,25.25 -19.57,50.75 -29.43,76.1 -8.69,22.95 -17.85,45.72 -26.25,68.77 -1,-9.69 -0.15,-19.55 -0.43,-29.31 -15.33,-0.01 -30.67,0 -46,0 -0.03,-38.52 0.06,-77.03 -0.04,-115.55 -12.91,0.07 -25.81,0 -38.72,0.04 m 475.49,0.01 c -18.64,48.41 -37.2,96.84 -55.89,145.22 -14.67,-19.22 -29.4,-38.4 -44.15,-57.57 7.28,-1.4 14.32,-4.66 19.67,-9.86 7.66,-7.31 11.75,-17.81 12.39,-28.27 0.63,-10.09 -0.94,-20.67 -6.41,-29.35 -5.9,-9.48 -16.12,-15.61 -26.85,-18.07 -10.63,-2.74 -21.68,-2.04 -32.55,-2.12 -14.39,0.01 -28.78,-0.02 -43.17,0.01 0.01,49.44 -0.14,98.88 0.07,148.32 12.89,-0.1 25.78,0 38.67,-0.05 0.01,-18.91 0.04,-37.83 -0.01,-56.74 12.48,18.74 24.11,38.06 36.58,56.81 28.58,-0.12 57.16,-0.06 85.75,-0.03 3.49,-8.57 6.87,-17.19 10.28,-25.8 17.58,0.01 35.15,0 52.73,0 3.08,8.62 6.4,17.16 9.59,25.74 13.77,0.11 27.53,-0.08 41.29,0.1 -18.48,-49.52 -37.11,-99.01 -55.9,-148.42 -14.03,0.14 -28.06,-0.01 -42.09,0.08 m 111.31,-0.05 c -0.08,11.03 -0.05,22.06 -0.01,33.09 19.25,-0.02 38.49,-0.04 57.74,0.01 -23.25,38.44 -46.62,76.81 -69.92,115.23 42.38,-0.02 84.76,-0.01 127.14,-0.01 0.02,-10.92 0.01,-21.85 0.01,-32.77 -20.62,-0.03 -41.24,0.05 -61.85,-0.04 23.26,-38.48 46.51,-76.98 69.72,-115.5 -40.95,0.02 -81.89,0.04 -122.83,-0.01 m 393,0 c -0.11,30.21 0.02,60.42 -0.06,90.62 -23.59,-30.17 -47.05,-60.44 -70.64,-90.61 -12.86,0.06 -25.72,-0.02 -38.57,0.03 -0.04,49.43 -0.04,98.85 0,148.28 12.91,-0.01 25.83,0.01 38.74,-0.01 0.05,-30.1 -0.04,-60.2 0.05,-90.29 10.27,12.38 19.84,25.37 29.83,38 13.58,17.44 27.07,34.95 40.74,52.32 12.88,-0.05 25.75,0 38.63,-0.03 0.01,-49.42 0.02,-98.85 0,-148.27 -12.91,-0.04 -25.82,0.02 -38.72,-0.04 z"
       id="path5"
       style="fill:#005c93" />
    <path
       d="m 520.51,74.29 c 7.36,-0.11 15.18,-0.12 21.86,3.39 11.3,5.59 11,24.9 -0.54,30.06 -6.63,3.17 -14.2,3.18 -21.39,3.14 0.18,-12.19 0.04,-24.4 0.07,-36.59 z"
       id="path7"
       style="fill:#005c93" />
    <path
       d="m 962.5,77.56 c 19.6,-2.89 40.2,10.08 45.72,29.16 2.93,10.95 0.8,22.97 -4.77,32.74 -5.64,9.8 -15.41,17.17 -26.47,19.64 -10.89,2.55 -22.76,0.31 -31.98,-6.01 -15.41,-10.38 -22.84,-31.72 -16.42,-49.27 5.36,-14.08 19.05,-24.38 33.92,-26.26 z"
       id="path9"
       style="fill:#005c93" />
    <path
       d="m 344.64,90.87 c 0.44,0.7 0.81,1.44 1.11,2.21 4.85,14.73 9.84,29.42 14.67,44.15 -10.5,0 -20.99,0 -31.48,0 5.42,-15.38 10.41,-30.93 15.7,-46.36 z"
       id="path11"
       style="fill:#005c93" />
    <path
       d="m 679.52,90.49 c 5.54,15.47 10.44,31.18 15.74,46.73 -10.49,0.02 -20.98,0.01 -31.48,0.01 5.29,-15.57 10.62,-31.12 15.74,-46.74 z"
       id="path13"
       style="fill:#005c93" />
  </g>
  <g
     id="#ed1d26ff"
     transform="scale(0.33287175,0.33287175)">
    <path
       d="m 976.44,40.03 c 6.76,-8.23 13.57,-16.41 20.4,-24.58 8.01,5.84 16.05,11.65 24.07,17.48 -5.49,4.87 -10.96,9.76 -16.49,14.57 -6.24,5.44 -12.4,10.95 -18.62,16.4 -6.07,-4.37 -12.11,-8.8 -18.22,-13.13 2.9,-3.62 5.96,-7.11 8.86,-10.74 z"
       id="path16"
       style="fill:#ed1d26" />
  </g>
  <g
     id="#ffffffff"
     transform="scale(0.33287175,0.33287175)">
    <path
       d="m 906.82,64.81 c 17.84,-18.34 44.28,-27.28 69.62,-24.78 -2.9,3.63 -5.96,7.12 -8.86,10.74 6.11,4.33 12.15,8.76 18.22,13.13 6.22,-5.45 12.38,-10.96 18.62,-16.4 12.74,6.1 24.29,15.04 32.37,26.71 8.53,12.11 13.3,26.96 12.99,41.8 0.3,18.95 -5.69,38.22 -17.75,52.97 -9.48,11.77 -22.69,20.33 -37.1,24.75 -16.88,5.15 -35.21,5.27 -52.2,0.56 -17.37,-4.83 -33.05,-15.82 -43.05,-30.88 -9.8,-14.41 -14.12,-32.1 -13.69,-49.41 0.19,-18.3 8.04,-36.2 20.83,-49.19 m 55.68,12.75 c -14.87,1.88 -28.56,12.18 -33.92,26.26 -6.42,17.55 1.01,38.89 16.42,49.27 9.22,6.32 21.09,8.56 31.98,6.01 11.06,-2.47 20.83,-9.84 26.47,-19.64 5.57,-9.77 7.7,-21.79 4.77,-32.74 C 1002.7,87.64 982.1,74.67 962.5,77.56 z"
       id="path19"
       style="fill:#ffffff" />
    <path
       d="m 183.24,44.49 c 12.91,-0.04 25.81,0.03 38.72,-0.04 0.1,38.52 0.01,77.03 0.04,115.55 15.33,0 30.67,-0.01 46,0 0.28,9.76 -0.57,19.62 0.43,29.31 8.4,-23.05 17.56,-45.82 26.25,-68.77 9.86,-25.35 19.35,-50.85 29.43,-76.1 14.02,0.13 28.05,-0.07 42.07,0.1 18.55,49.43 37.21,98.81 55.81,148.22 -13.82,-0.04 -27.64,0.12 -41.46,-0.07 -3.11,-8.6 -6.36,-17.15 -9.61,-25.7 -17.55,0.03 -35.1,-0.02 -52.64,0.02 -3.48,8.6 -6.66,17.31 -10.37,25.8 -41.56,-0.1 -83.12,-0.01 -124.67,-0.05 -0.01,-49.42 -0.02,-98.85 0,-148.27 m 161.4,46.38 c -5.29,15.43 -10.28,30.98 -15.7,46.36 10.49,0 20.98,0 31.48,0 -4.83,-14.73 -9.82,-29.42 -14.67,-44.15 -0.3,-0.77 -0.67,-1.51 -1.11,-2.21 z"
       id="path21"
       style="fill:#ffffff" />
    <path
       d="m 658.73,44.5 c 14.03,-0.09 28.06,0.06 42.09,-0.08 18.79,49.41 37.42,98.9 55.9,148.42 -13.76,-0.18 -27.52,0.01 -41.29,-0.1 -3.19,-8.58 -6.51,-17.12 -9.59,-25.74 -17.58,0 -35.15,0.01 -52.73,0 -3.41,8.61 -6.79,17.23 -10.28,25.8 -28.59,-0.03 -57.17,-0.09 -85.75,0.03 -12.47,-18.75 -24.1,-38.07 -36.58,-56.81 0.05,18.91 0.02,37.83 0.01,56.74 -12.89,0.05 -25.78,-0.05 -38.67,0.05 -0.21,-49.44 -0.06,-98.88 -0.07,-148.32 14.39,-0.03 28.78,0 43.17,-0.01 10.87,0.08 21.92,-0.62 32.55,2.12 10.73,2.46 20.95,8.59 26.85,18.07 5.47,8.68 7.04,19.26 6.41,29.35 -0.64,10.46 -4.73,20.96 -12.39,28.27 -5.35,5.2 -12.39,8.46 -19.67,9.86 14.75,19.17 29.48,38.35 44.15,57.57 18.69,-48.38 37.25,-96.81 55.89,-145.22 M 520.51,74.29 c -0.03,12.19 0.11,24.4 -0.07,36.59 7.19,0.04 14.76,0.03 21.39,-3.14 11.54,-5.16 11.84,-24.47 0.54,-30.06 -6.68,-3.51 -14.5,-3.5 -21.86,-3.39 m 159.01,16.2 c -5.12,15.62 -10.45,31.17 -15.74,46.74 10.5,0 20.99,0.01 31.48,-0.01 -5.3,-15.55 -10.2,-31.26 -15.74,-46.73 z"
       id="path23"
       style="fill:#ffffff" />
    <path
       d="m 770.04,44.45 c 40.94,0.05 81.88,0.03 122.83,0.01 -23.21,38.52 -46.46,77.02 -69.72,115.5 20.61,0.09 41.23,0.01 61.85,0.04 0,10.92 0.01,21.85 -0.01,32.77 -42.38,0 -84.76,-0.01 -127.14,0.01 23.3,-38.42 46.67,-76.79 69.92,-115.23 -19.25,-0.05 -38.49,-0.03 -57.74,-0.01 -0.04,-11.03 -0.07,-22.06 0.01,-33.09 z"
       id="path25"
       style="fill:#ffffff" />
    <path
       d="m 1163.04,44.45 c 12.9,0.06 25.81,0 38.72,0.04 0.02,49.42 0.01,98.85 0,148.27 -12.88,0.03 -25.75,-0.02 -38.63,0.03 -13.67,-17.37 -27.16,-34.88 -40.74,-52.32 -9.99,-12.63 -19.56,-25.62 -29.83,-38 -0.09,30.09 0,60.19 -0.05,90.29 -12.91,0.02 -25.83,0 -38.74,0.01 -0.04,-49.43 -0.04,-98.85 0,-148.28 12.85,-0.05 25.71,0.03 38.57,-0.03 23.59,30.17 47.05,60.44 70.64,90.61 0.08,-30.2 -0.05,-60.41 0.06,-90.62 z"
       id="path27"
       style="fill:#ffffff" />
  </g>
</svg>
